<!--
  - Copyright 2023 Squircle CE contributors.
  -
  - Licensed under the Apache License, Version 2.0 (the "License");
  - you may not use this file except in compliance with the License.
  - You may obtain a copy of the License at
  -
  -     http://www.apache.org/licenses/LICENSE-2.0
  -
  - Unless required by applicable law or agreed to in writing, software
  - distributed under the License is distributed on an "AS IS" BASIS,
  - WITHOUT WARRANTIES OR CONDITIONS OF ANY KIND, either express or implied.
  - See the License for the specific language governing permissions and
  - limitations under the License.
  -->

<svg width="200" height="200" viewBox="0 0 200 200" fill="none" xmlns="http://www.w3.org/2000/svg">
    <g filter="url(#filter0_d_223_4029)">
        <path
            d="M191 100C191 62.5308 191 43.7961 181.795 30.4606C178.216 25.2755 173.725 20.7839 168.539 17.2048C155.204 8 136.469 8 99 8V8C61.5308 8 42.7961 8 29.4606 17.2048C24.2755 20.7839 19.7839 25.2755 16.2048 30.4606C7 43.7961 7 62.5308 7 100V100C7 137.469 7 156.204 16.2048 169.539C19.7839 174.725 24.2755 179.216 29.4606 182.795C42.7961 192 61.5308 192 99 192V192C136.469 192 155.204 192 168.539 182.795C173.725 179.216 178.216 174.725 181.795 169.539C191 156.204 191 137.469 191 100V100Z"
            fill="url(#paint0_radial_223_4029)" />
    </g>
    <g filter="url(#filter1_d_223_4029)">
        <path fill-rule="evenodd" clip-rule="evenodd"
            d="M37 99.8718L61.7508 75.121L75.0418 88.412L63.5816 99.8722L98.9371 135.227L110.397 123.768L123.623 136.993L98.8719 161.744L37 99.8718ZM123.655 110.509L136.881 123.735L160.744 99.8718L98.8719 38L75.009 61.8628L88.3 75.1538L98.9371 64.5167L134.292 99.8722L123.655 110.509Z"
            fill="white" />
    </g>
    <defs>
        <filter id="filter0_d_223_4029" x="3" y="8" width="192" height="192"
            filterUnits="userSpaceOnUse" color-interpolation-filters="sRGB">
            <feFlood flood-opacity="0" result="BackgroundImageFix" />
            <feColorMatrix in="SourceAlpha" type="matrix"
                values="0 0 0 0 0 0 0 0 0 0 0 0 0 0 0 0 0 0 127 0" result="hardAlpha" />
            <feOffset dy="4" />
            <feGaussianBlur stdDeviation="2" />
            <feComposite in2="hardAlpha" operator="out" />
            <feColorMatrix type="matrix" values="0 0 0 0 0 0 0 0 0 0 0 0 0 0 0 0 0 0 0.25 0" />
            <feBlend mode="normal" in2="BackgroundImageFix" result="effect1_dropShadow_223_4029" />
            <feBlend mode="normal" in="SourceGraphic" in2="effect1_dropShadow_223_4029"
                result="shape" />
        </filter>
        <filter id="filter1_d_223_4029" x="33" y="38" width="131.744" height="133.744"
            filterUnits="userSpaceOnUse" color-interpolation-filters="sRGB">
            <feFlood flood-opacity="0" result="BackgroundImageFix" />
            <feColorMatrix in="SourceAlpha" type="matrix"
                values="0 0 0 0 0 0 0 0 0 0 0 0 0 0 0 0 0 0 127 0" result="hardAlpha" />
            <feOffset dy="6" />
            <feGaussianBlur stdDeviation="2" />
            <feComposite in2="hardAlpha" operator="out" />
            <feColorMatrix type="matrix" values="0 0 0 0 0 0 0 0 0 0 0 0 0 0 0 0 0 0 0.25 0" />
            <feBlend mode="normal" in2="BackgroundImageFix" result="effect1_dropShadow_223_4029" />
            <feBlend mode="normal" in="SourceGraphic" in2="effect1_dropShadow_223_4029"
                result="shape" />
        </filter>
        <radialGradient id="paint0_radial_223_4029" cx="0" cy="0" r="1"
            gradientUnits="userSpaceOnUse"
            gradientTransform="translate(48.3281 142.766) scale(172.5)">
            <stop stop-color="#C13338" />
            <stop offset="0.2" stop-color="#BC3338" />
            <stop offset="0.45" stop-color="#86383C" />
            <stop offset="0.6" stop-color="#573D3F" />
            <stop offset="0.75" stop-color="#3E3F41" />
        </radialGradient>
    </defs>
</svg>
