<!--
  - Copyright 2025 Squircle CE contributors.
  -
  - Licensed under the Apache License, Version 2.0 (the "License");
  - you may not use this file except in compliance with the License.
  - You may obtain a copy of the License at
  -
  -     http://www.apache.org/licenses/LICENSE-2.0
  -
  - Unless required by applicable law or agreed to in writing, software
  - distributed under the License is distributed on an "AS IS" BASIS,
  - WITHOUT WARRANTIES OR CONDITIONS OF ANY KIND, either express or implied.
  - See the License for the specific language governing permissions and
  - limitations under the License.
  -->

<svg width="200" height="200" viewBox="0 0 200 200" fill="none" xmlns="http://www.w3.org/2000/svg">
    <g filter="url(#filter0_d_189_2355)">
        <path
            d="M191 100C191 62.5308 191 43.7961 181.795 30.4606C178.216 25.2755 173.725 20.7839 168.539 17.2048C155.204 8 136.469 8 99 8C61.5308 8 42.7961 8 29.4606 17.2048C24.2755 20.7839 19.7839 25.2755 16.2048 30.4606C7 43.7961 7 62.5308 7 100C7 137.469 7 156.204 16.2048 169.539C19.7839 174.725 24.2755 179.216 29.4606 182.795C42.7961 192 61.5308 192 99 192C136.469 192 155.204 192 168.539 182.795C173.725 179.216 178.216 174.725 181.795 169.539C191 156.204 191 137.469 191 100Z"
            fill="black" />
    </g>
    <path
        d="M42.3103 104.108L84.8275 136.97V150.663L42.3103 117.801V104.108ZM113.172 136.97L155.689 104.108V117.801L113.172 150.663V136.97ZM36.44 93.1537C36.44 97.4316 38.6834 101.304 42.3103 104.108V117.801C38.6834 114.996 36.44 111.124 36.44 106.846V93.1537ZM161.56 93.1537V106.846C161.56 111.124 159.316 114.996 155.689 117.801V104.108C159.316 101.304 161.56 97.4316 161.56 93.1537ZM84.8275 136.97C92.6546 143.02 105.345 143.02 113.172 136.97V150.663C105.345 156.713 92.6546 156.713 84.8275 150.663V136.97ZM84.8275 49.3373C92.6546 43.2875 105.345 43.2875 113.172 49.3373L155.689 82.1997C163.517 88.2495 163.517 98.0581 155.689 104.108L113.172 136.97C105.345 143.02 92.6546 143.02 84.8275 136.97L42.3103 104.108C34.4833 98.0581 34.4833 88.2495 42.3103 82.1997L84.8275 49.3373Z"
        fill="#D9D9D9" />
    <path
        d="M84.8275 49.3373C92.6546 43.2875 105.345 43.2875 113.172 49.3373L155.689 82.1997C163.517 88.2495 163.517 98.0581 155.689 104.108L113.172 136.97C105.345 143.02 92.6546 143.02 84.8275 136.97L42.3103 104.108C34.4833 98.0581 34.4833 88.2495 42.3103 82.1997L84.8275 49.3373Z"
        fill="white" />
    <path
        d="M58.4949 93.1536L74.6965 80.6321L83.3966 87.3559L75.8948 93.1536L99.0388 111.04L106.54 105.243L115.197 111.933L98.9957 124.455L58.4949 93.1536Z"
        fill="black" />
    <path
        d="M115.218 98.5349L123.876 105.226L139.497 93.1536L98.9957 61.8524L83.3753 73.9246L92.0753 80.6485L99.0388 75.2672L122.182 93.1536L115.218 98.5349Z"
        fill="black" />
    <defs>
        <filter id="filter0_d_189_2355" x="3" y="8" width="192" height="192"
            filterUnits="userSpaceOnUse" color-interpolation-filters="sRGB">
            <feFlood flood-opacity="0" result="BackgroundImageFix" />
            <feColorMatrix in="SourceAlpha" type="matrix"
                values="0 0 0 0 0 0 0 0 0 0 0 0 0 0 0 0 0 0 127 0" result="hardAlpha" />
            <feOffset dy="4" />
            <feGaussianBlur stdDeviation="2" />
            <feComposite in2="hardAlpha" operator="out" />
            <feColorMatrix type="matrix" values="0 0 0 0 0 0 0 0 0 0 0 0 0 0 0 0 0 0 0.25 0" />
            <feBlend mode="normal" in2="BackgroundImageFix" result="effect1_dropShadow_189_2355" />
            <feBlend mode="normal" in="SourceGraphic" in2="effect1_dropShadow_189_2355"
                result="shape" />
        </filter>
    </defs>
</svg>
