<!--
  - Copyright 2025 Squircle CE contributors.
  -
  - Licensed under the Apache License, Version 2.0 (the "License");
  - you may not use this file except in compliance with the License.
  - You may obtain a copy of the License at
  -
  -     http://www.apache.org/licenses/LICENSE-2.0
  -
  - Unless required by applicable law or agreed to in writing, software
  - distributed under the License is distributed on an "AS IS" BASIS,
  - WITHOUT WARRANTIES OR CONDITIONS OF ANY KIND, either express or implied.
  - See the License for the specific language governing permissions and
  - limitations under the License.
  -->

<svg width="512" height="512" viewBox="0 0 512 512" fill="none" xmlns="http://www.w3.org/2000/svg">
    <g clip-path="url(#clip0_189_2348)">
        <path d="M512 0H0V512H512V0Z" fill="black" />
        <path
            d="M120.075 265.361L222.019 344.242V377.109L120.075 298.228V265.361ZM289.979 344.242L391.923 265.361V298.228L289.979 377.109V344.242ZM106 239.066C106 249.335 111.379 258.63 120.075 265.361V298.228C111.379 291.497 106 282.202 106 271.933V239.066ZM405.999 239.066V271.933C405.999 282.202 400.619 291.497 391.923 298.228V265.361C400.619 258.63 405.999 249.335 405.999 239.066ZM222.019 344.242C240.786 358.764 271.213 358.764 289.979 344.242V377.109C271.213 391.631 240.786 391.631 222.019 377.109V344.242ZM222.019 133.891C240.786 119.37 271.213 119.37 289.979 133.891L391.923 212.773C410.692 227.294 410.692 250.839 391.923 265.361L289.979 344.242C271.213 358.764 240.786 358.764 222.019 344.242L120.075 265.361C101.308 250.839 101.308 227.294 120.075 212.773L222.019 133.891Z"
            fill="#D9D9D9" />
        <path
            d="M222.019 133.891C240.786 119.37 271.213 119.37 289.979 133.891L391.922 212.773C410.692 227.294 410.692 250.839 391.922 265.361L289.979 344.242C271.213 358.764 240.786 358.764 222.019 344.242L120.075 265.361C101.308 250.839 101.308 227.294 120.075 212.773L222.019 133.891Z"
            fill="white" />
        <path
            d="M158.881 239.066L197.727 209.01L218.588 225.15L200.601 239.066L256.093 282L274.08 268.084L294.836 284.143L255.99 314.201L158.881 239.066Z"
            fill="black" />
        <path
            d="M294.886 251.983L315.646 268.045L353.099 239.066L255.99 163.932L218.537 192.91L239.397 209.05L256.093 196.132L311.583 239.066L294.886 251.983Z"
            fill="black" />
    </g>
    <defs>
        <clipPath id="clip0_189_2348">
            <rect width="512" height="512" fill="white" />
        </clipPath>
    </defs>
</svg>
