<!--
  - Copyright 2025 Squircle CE contributors.
  -
  - Licensed under the Apache License, Version 2.0 (the "License");
  - you may not use this file except in compliance with the License.
  - You may obtain a copy of the License at
  -
  -     http://www.apache.org/licenses/LICENSE-2.0
  -
  - Unless required by applicable law or agreed to in writing, software
  - distributed under the License is distributed on an "AS IS" BASIS,
  - WITHOUT WARRANTIES OR CONDITIONS OF ANY KIND, either express or implied.
  - See the License for the specific language governing permissions and
  - limitations under the License.
  -->

<svg width="200" height="200" viewBox="0 0 200 200" fill="none" xmlns="http://www.w3.org/2000/svg">
    <mask id="mask0_190_2403" style="mask-type:luminance" maskUnits="userSpaceOnUse" x="36" y="36"
        width="128" height="128">
        <path
            d="M36 100C36 135.346 64.6538 164 100 164C135.346 164 164 135.346 164 100C164 64.6538 135.346 36 100 36C64.6538 36 36 64.6538 36 100Z"
            fill="white" />
    </mask>
    <g mask="url(#mask0_190_2403)">
        <path d="M164 36H36V164H164V36Z" fill="black" />
        <path
            d="M61.9411 102.754L90.4852 124.781V133.959L61.9411 111.932V102.754ZM109.514 124.781L138.058 102.754V111.932L109.514 133.959V124.781ZM58 95.411C58 98.2784 59.5061 100.874 61.9411 102.754V111.932C59.5061 110.052 58 107.456 58 104.589V95.411ZM142 95.411V104.589C142 107.456 140.493 110.052 138.058 111.932V102.754C140.493 100.874 142 98.2784 142 95.411ZM90.4852 124.781C95.74 128.836 104.26 128.836 109.514 124.781V133.959C104.26 138.014 95.74 138.014 90.4852 133.959V124.781ZM90.4852 66.0413C95.74 61.9862 104.26 61.9862 109.514 66.0413L138.058 88.0686C143.314 92.1237 143.314 98.6984 138.058 102.754L109.514 124.781C104.26 128.836 95.74 128.836 90.4852 124.781L61.9411 102.754C56.6863 98.6984 56.6863 92.1237 61.9411 88.0686L90.4852 66.0413Z"
            fill="#D9D9D9" />
        <path
            d="M90.4852 66.0413C95.74 61.9862 104.26 61.9862 109.514 66.0413L138.058 88.0686C143.314 92.1237 143.314 98.6984 138.058 102.754L109.514 124.781C104.26 128.836 95.74 128.836 90.4852 124.781L61.9411 102.754C56.6863 98.6984 56.6863 92.1237 61.9411 88.0686L90.4852 66.0413Z"
            fill="white" />
        <path
            d="M72.8066 95.4109L83.6837 87.0179L89.5245 91.5248L84.4882 95.4109L100.026 107.4L105.062 103.514L110.874 107.999L99.9971 116.392L72.8066 95.4109Z"
            fill="black" />
        <path
            d="M110.888 99.0179L116.701 103.503L127.188 95.4109L99.9971 74.4301L89.5103 82.522L95.351 87.0289L100.026 83.4219L115.563 95.4109L110.888 99.0179Z"
            fill="black" />
    </g>
</svg>
