<!--
  - Copyright 2023 Squircle CE contributors.
  -
  - Licensed under the Apache License, Version 2.0 (the "License");
  - you may not use this file except in compliance with the License.
  - You may obtain a copy of the License at
  -
  -     http://www.apache.org/licenses/LICENSE-2.0
  -
  - Unless required by applicable law or agreed to in writing, software
  - distributed under the License is distributed on an "AS IS" BASIS,
  - WITHOUT WARRANTIES OR CONDITIONS OF ANY KIND, either express or implied.
  - See the License for the specific language governing permissions and
  - limitations under the License.
  -->

<svg width="200" height="200" viewBox="0 0 200 200" fill="none" xmlns="http://www.w3.org/2000/svg">
<g clip-path="url(#clip0_171_4030)">
<path d="M200 0H0V200H200V0Z" fill="url(#paint0_radial_171_4030)"/>
<path d="M101.408 74.0908L92.2221 83.276L81.9165 72.9704L100.735 53.7037L101.408 74.0908Z" fill="#E4E4E4"/>
<path d="M127.172 99.8546L117.986 108.816L128.292 119.122L146.662 99.8546H127.172Z" fill="#E4E4E4"/>
<path d="M146.663 99.8547L100.736 53.7037V74.763L127.172 99.8547H146.663Z" fill="white"/>
<path d="M73.1796 101.423L82.8129 91.7894L72.5074 81.4838L53.2407 100.303L73.1796 101.423Z" fill="#E4E4E4"/>
<path d="M99.168 126.962L108.353 117.553L118.659 127.859L99.392 146.23L99.168 126.962Z" fill="#E4E4E4"/>
<path d="M99.3916 146.23L53.2407 100.303H74.3L99.3916 126.739V146.23Z" fill="white"/>
</g>
<defs>
<radialGradient id="paint0_radial_171_4030" cx="0" cy="0" r="1" gradientUnits="userSpaceOnUse" gradientTransform="translate(50.00 155.00) rotate(-45.0) scale(215.00)">
<stop stop-color="#C13338"/>
<stop offset="0.1" stop-color="#BC3338"/>
<stop offset="0.3" stop-color="#86383C"/>
<stop offset="0.6" stop-color="#573D3F"/>
<stop offset="0.75" stop-color="#3E3F41"/>
</radialGradient>
<clipPath id="clip0_171_4030">
<rect width="200" height="200" fill="white"/>
</clipPath>
</defs>
</svg>
