<?xml version="1.0" encoding="utf-8"?>
<!-- Generator: Adobe Illustrator 19.0.1, SVG Export Plug-In . SVG Version: 6.00 Build 0)  -->
<svg version="1.1" id="Layer_1" xmlns="http://www.w3.org/2000/svg" xmlns:xlink="http://www.w3.org/1999/xlink" x="0px" y="0px"
	 viewBox="134 307.5 880.6 178.5" style="enable-background:new 134 307.5 880.6 178.5;" xml:space="preserve">
<style type="text/css">
	.st0{fill-opacity:0;}
	.st1{opacity:0.54;enable-background:new    ;}
	.st2{fill:url(#SVGID_1_);}
	.st3{fill:url(#SVGID_2_);}
	.st4{fill:url(#SVGID_3_);}
	.st5{fill:url(#SVGID_4_);}
	.st6{opacity:0.2;enable-background:new    ;}
	.st7{opacity:0.12;enable-background:new    ;}
	.st8{opacity:0.25;fill:#FFFFFF;enable-background:new    ;}
</style>
<g>
	<rect x="6.3" y="172.8" class="st0" width="1136" height="448"/>
	<path class="st1" d="M555.6,379.2c-18.7,0-33.9,14.2-33.9,33.8c0,19.5,15.2,33.8,33.9,33.8s33.9-14.3,33.9-33.8
		C589.5,393.5,574.3,379.2,555.6,379.2z M555.6,433.5c-10.2,0-19.1-8.5-19.1-20.5c0-12.2,8.8-20.5,19.1-20.5s19.1,8.3,19.1,20.5
		C574.6,425,565.8,433.5,555.6,433.5z M646.4,386.8h-0.5c-3.3-4-9.7-7.6-17.8-7.6c-16.9,0-32.4,14.9-32.4,33.9
		c0,18.9,15.5,33.7,32.4,33.7c8.1,0,14.5-3.6,17.8-7.7h0.5v4.9c0,12.9-6.9,19.8-18,19.8c-9.1,0-14.7-6.5-17-12l-12.9,5.4
		c3.7,9,13.6,20,30,20c17.4,0,32.1-10.2,32.1-35.2v-60.7h-14.1L646.4,386.8L646.4,386.8z M629.4,433.5c-10.2,0-18.8-8.6-18.8-20.4
		c0-11.9,8.6-20.6,18.8-20.6c10.1,0,18,8.7,18,20.6S639.5,433.5,629.4,433.5z M481.6,379.2c-18.7,0-33.9,14.2-33.9,33.8
		c0,19.5,15.2,33.8,33.9,33.8s33.9-14.3,33.9-33.8C515.5,393.5,500.3,379.2,481.6,379.2z M481.6,433.5c-10.2,0-19.1-8.5-19.1-20.5
		c0-12.2,8.8-20.5,19.1-20.5c10.2,0,19.1,8.3,19.1,20.5C500.6,425,491.8,433.5,481.6,433.5z M393.5,389.5v14.3h34.3
		c-1,8.1-3.7,14-7.8,18.1c-5,5-12.8,10.5-26.5,10.5c-21.1,0-37.6-17-37.6-38.1s16.5-38.1,37.6-38.1c11.4,0,19.7,4.5,25.9,10.2
		l10.1-10.1c-8.6-8.2-20-14.5-36-14.5c-28.9,0-53.3,23.6-53.3,52.5s24.3,52.5,53.3,52.5c15.6,0,27.4-5.1,36.6-14.7
		c9.5-9.5,12.4-22.8,12.4-33.5c0-3.3-0.3-6.4-0.8-9L393.5,389.5L393.5,389.5z M753.5,400.8c-2.8-7.6-11.4-21.5-28.9-21.5
		c-17.4,0-31.9,13.7-31.9,33.8c0,18.9,14.3,33.8,33.5,33.8c15.5,0,24.5-9.5,28.2-15l-11.5-7.7c-3.8,5.6-9.1,9.3-16.6,9.3
		s-12.9-3.5-16.4-10.2l45.2-18.7L753.5,400.8z M707.5,412c-0.4-13.1,10.1-19.7,17.7-19.7c5.9,0,10.9,2.9,12.5,7.2L707.5,412z
		 M670.7,444.8h14.8v-99.3h-14.8V444.8z M823.1,345.5h-35.5v99.3h14.8v-37.6h20.7c16.4,0,32.6-11.9,32.6-30.9
		C855.7,357.4,839.5,345.5,823.1,345.5z M823.5,393.2h-21.1v-34h21.1c11.1,0,17.4,9.2,17.4,17C840.9,384,834.6,393.2,823.5,393.2z
		 M863.9,444.8h14.8v-99.3h-14.8L863.9,444.8L863.9,444.8z M915.1,379c-10.7,0-21.9,4.7-26.5,15.2l13.2,5.5c2.8-5.5,8-7.3,13.5-7.3
		c7.7,0,15.5,4.6,15.6,12.8v1c-2.7-1.5-8.4-3.8-15.5-3.8c-14.2,0-28.6,7.8-28.6,22.4c0,13.3,11.6,21.8,24.7,21.8
		c10,0,15.5-4.5,18.9-9.7h0.5v7.7h14.3v-38.1C945.3,388.9,932.1,379,915.1,379z M913.3,433.5c-4.9,0-11.6-2.4-11.6-8.4
		c0-7.7,8.4-10.6,15.7-10.6c6.5,0,9.6,1.4,13.5,3.3C929.8,427,921.9,433.5,913.3,433.5z M997.4,381.2l-17,43.1h-0.5l-17.6-43.1h-16
		l26.4,60.2L957.6,475h15.5l40.8-93.7H997.4z"/>
	<g>
		
			<linearGradient id="SVGID_1_" gradientUnits="userSpaceOnUse" x1="215.196" y1="531.454" x2="100.3592" y2="646.2908" gradientTransform="matrix(1 0 0 1 0 -212)">
			<stop  offset="0" style="stop-color:#00A0FF"/>
			<stop  offset="6.574452e-03" style="stop-color:#00A1FF"/>
			<stop  offset="0.2601" style="stop-color:#00BEFF"/>
			<stop  offset="0.5122" style="stop-color:#00D2FF"/>
			<stop  offset="0.7604" style="stop-color:#00DFFF"/>
			<stop  offset="1" style="stop-color:#00E3FF"/>
		</linearGradient>
		<path class="st2" d="M137.5,311.5c-2,2.1-3.2,5.4-3.2,9.6v151.3c0,4.2,1.2,7.5,3.2,9.6l0.5,0.5l84.8-84.8v-1v-1L138,310.9
			L137.5,311.5z"/>
		
			<linearGradient id="SVGID_2_" gradientUnits="userSpaceOnUse" x1="297.5784" y1="608.75" x2="132.0066" y2="608.75" gradientTransform="matrix(1 0 0 1 0 -212)">
			<stop  offset="0" style="stop-color:#FFE000"/>
			<stop  offset="0.4087" style="stop-color:#FFBD00"/>
			<stop  offset="0.7754" style="stop-color:#FFA500"/>
			<stop  offset="1" style="stop-color:#FF9C00"/>
		</linearGradient>
		<path class="st3" d="M251,426l-28.2-28.3v-1v-1l28.3-28.3l0.6,0.4l33.5,19c9.6,5.4,9.6,14.3,0,19.8l-33.5,19L251,426z"/>
		
			<linearGradient id="SVGID_3_" gradientUnits="userSpaceOnUse" x1="235.9693" y1="624.4807" x2="80.2417" y2="780.2083" gradientTransform="matrix(1 0 0 1 0 -212)">
			<stop  offset="0" style="stop-color:#FF3A44"/>
			<stop  offset="1" style="stop-color:#C31162"/>
		</linearGradient>
		<path class="st4" d="M251.7,425.6l-28.9-28.9L137.5,482c3.1,3.3,8.4,3.8,14.2,0.4L251.7,425.6"/>
		
			<linearGradient id="SVGID_4_" gradientUnits="userSpaceOnUse" x1="116.02" y1="473.07" x2="185.5586" y2="542.6086" gradientTransform="matrix(1 0 0 1 0 -212)">
			<stop  offset="0" style="stop-color:#32A071"/>
			<stop  offset="6.850000e-02" style="stop-color:#2DA771"/>
			<stop  offset="0.4762" style="stop-color:#15CF74"/>
			<stop  offset="0.8009" style="stop-color:#06E775"/>
			<stop  offset="1" style="stop-color:#00F076"/>
		</linearGradient>
		<path class="st5" d="M251.7,367.9l-100-56.8c-5.9-3.3-11.1-2.9-14.2,0.4l85.3,85.3L251.7,367.9z"/>
		<g>
			<path class="st6" d="M251,425l-99.3,56.4c-5.6,3.2-10.5,3-13.7,0.1l0,0l-0.5,0.5l0,0l0.5,0.5l0,0c3.2,2.9,8.2,3.1,13.7-0.1
				l100-56.8L251,425z"/>
			<path class="st7" d="M137.5,481c-2-2.1-3.2-5.4-3.2-9.6v1c0,4.2,1.2,7.5,3.2,9.6l0.5-0.5L137.5,481z"/>
		</g>
		<path class="st7" d="M285.1,405.6L251,425l0.6,0.6l33.5-19c4.8-2.7,7.2-6.3,7.2-9.9l0,0C291.9,400,289.5,403.1,285.1,405.6z"/>
		<path class="st8" d="M151.7,312l133.4,75.8c4.3,2.5,6.8,5.6,7.2,8.9l0,0c0-3.6-2.4-7.2-7.2-9.9L151.7,311
			c-9.6-5.4-17.4-0.9-17.4,10v1C134.3,311.1,142.1,306.6,151.7,312z"/>
	</g>
</g>
</svg>